HIERARCHY
ROOT Hips
{
	OFFSET 0.000000 0.000000 0.000000
	CHANNELS 6 Xposition Yposition Zposition Zrotation Xrotation Yrotation
	JOINT LHipJoint
	{
		OFFSET 0.000000 0.000000 0.000000
		CHANNELS 3 Zrotation Xrotation Yrotation
		JOINT LeftUpLeg
		{
			OFFSET 0.076937 -0.101296 0.047373
			CHANNELS 3 Zrotation Xrotation Yrotation
			JOINT LeftLeg
			{
				OFFSET 0.138181 -0.379650 0.000000
				CHANNELS 3 Zrotation Xrotation Yrotation
				JOINT LeftFoot
				{
					OFFSET 0.144621 -0.397343 0.000000
					CHANNELS 3 Zrotation Xrotation Yrotation
					JOINT LeftToeBase
					{
						OFFSET 0.008898 -0.024446 0.131094
						CHANNELS 3 Zrotation Xrotation Yrotation
						JOINT End_Site
						{
							OFFSET 0.000000 -0.000000 0.067149
							CHANNELS 3 Zrotation Xrotation Yrotation
							End Site
							{
								OFFSET 0.000000 -0.000000 0.020145
							}
						}
					}
				}
			}
		}
	}
	JOINT RHipJoint
	{
		OFFSET 0.000000 0.000000 0.000000
		CHANNELS 3 Zrotation Xrotation Yrotation
		JOINT RightUpLeg
		{
			OFFSET -0.073689 -0.101296 0.047373
			CHANNELS 3 Zrotation Xrotation Yrotation
			JOINT RightLeg
			{
				OFFSET -0.143511 -0.394292 0.000000
				CHANNELS 3 Zrotation Xrotation Yrotation
				JOINT RightFoot
				{
					OFFSET -0.144963 -0.398282 0.000000
					CHANNELS 3 Zrotation Xrotation Yrotation
					JOINT RightToeBase
					{
						OFFSET -0.009298 -0.025546 0.133386
						CHANNELS 3 Zrotation Xrotation Yrotation
						JOINT End_Site
						{
							OFFSET -0.000000 -0.000000 0.068344
							CHANNELS 3 Zrotation Xrotation Yrotation
							End Site
							{
								OFFSET -0.000000 -0.000000 0.020503
							}
						}
					}
				}
			}
		}
	}
	JOINT LowerBack
	{
		OFFSET 0.000000 0.000000 0.000000
		CHANNELS 3 Zrotation Xrotation Yrotation
		JOINT Spine
		{
			OFFSET 0.001596 0.114897 -0.010915
			CHANNELS 3 Zrotation Xrotation Yrotation
			JOINT Spine1
			{
				OFFSET 0.003202 0.115645 -0.002413
				CHANNELS 3 Zrotation Xrotation Yrotation
				JOINT Neck
				{
					OFFSET 0.000000 0.000000 0.000000
					CHANNELS 3 Zrotation Xrotation Yrotation
					JOINT Neck1
					{
						OFFSET -0.003058 0.098565 0.009709
						CHANNELS 3 Zrotation Xrotation Yrotation
						JOINT Head
						{
							OFFSET 0.005874 0.099418 -0.006997
							CHANNELS 3 Zrotation Xrotation Yrotation
							JOINT End_Site
							{
								OFFSET 0.002100 0.099931 -0.003523
								CHANNELS 3 Zrotation Xrotation Yrotation
								End Site
								{
									OFFSET 0.000630 0.029979 -0.001057
								}
							}
						}
					}
				}
				JOINT LeftShoulder
				{
					OFFSET 0.000000 0.000000 0.000000
					CHANNELS 3 Zrotation Xrotation Yrotation
					JOINT LeftArm
					{
						OFFSET 0.189788 0.067783 -0.017566
						CHANNELS 3 Zrotation Xrotation Yrotation
						JOINT LeftForeArm
						{
							OFFSET 0.281260 -0.000000 -0.000000
							CHANNELS 3 Zrotation Xrotation Yrotation
							JOINT LeftHand
							{
								OFFSET 0.196626 -0.000000 -0.000000
								CHANNELS 3 Zrotation Xrotation Yrotation
								JOINT LeftFingerBase
								{
									OFFSET 0.000000 0.000000 0.000000
									CHANNELS 3 Zrotation Xrotation Yrotation
									JOINT LeftHandIndex1
									{
										OFFSET 0.040372 -0.000000 -0.000000
										CHANNELS 3 Zrotation Xrotation Yrotation
										JOINT End_Site
										{
											OFFSET 0.032549 -0.000000 -0.000000
											CHANNELS 3 Zrotation Xrotation Yrotation
											End Site
											{
												OFFSET 0.009765 -0.000000 -0.000000
											}
										}
									}
								}
								JOINT LThumb
								{
									OFFSET 0.000000 0.000000 0.000000
									CHANNELS 3 Zrotation Xrotation Yrotation
									JOINT End_Site
									{
										OFFSET 0.033046 -0.000000 0.033046
										CHANNELS 3 Zrotation Xrotation Yrotation
										End Site
										{
											OFFSET 0.009914 -0.000000 0.009914
										}
									}
								}
							}
						}
					}
				}
				JOINT RightShoulder
				{
					OFFSET 0.000000 0.000000 0.000000
					CHANNELS 3 Zrotation Xrotation Yrotation
					JOINT RightArm
					{
						OFFSET -0.177042 0.077557 -0.022840
						CHANNELS 3 Zrotation Xrotation Yrotation
						JOINT RightForeArm
						{
							OFFSET -0.295874 -0.000000 -0.000000
							CHANNELS 3 Zrotation Xrotation Yrotation
							JOINT RightHand
							{
								OFFSET -0.194403 -0.000000 -0.000000
								CHANNELS 3 Zrotation Xrotation Yrotation
								JOINT RightFingerBase
								{
									OFFSET 0.000000 0.000000 0.000000
									CHANNELS 3 Zrotation Xrotation Yrotation
									JOINT RightHandIndex1
									{
										OFFSET -0.035138 -0.000000 -0.000000
										CHANNELS 3 Zrotation Xrotation Yrotation
										JOINT End_Site
										{
											OFFSET -0.028329 -0.000000 -0.000000
											CHANNELS 3 Zrotation Xrotation Yrotation
											End Site
											{
												OFFSET -0.008499 -0.000000 -0.000000
											}
										}
									}
								}
								JOINT RThumb
								{
									OFFSET 0.000000 0.000000 0.000000
									CHANNELS 3 Zrotation Xrotation Yrotation
									JOINT End_Site
									{
										OFFSET -0.028762 -0.000000 0.028762
										CHANNELS 3 Zrotation Xrotation Yrotation
										End Site
										{
											OFFSET -0.008628 -0.000000 0.008628
										}
									}
								}
							}
						}
					}
				}
			}
		}
	}
}
MOTION
Frames: 10
Frame Time: 0.03333333
1.318924 0.959374 -0.043463 0.000000 0.000000 0.000000 -33.144332 38.857756 41.985673 10.363659 -48.921402 -13.724356 -42.149697 2.561513 2.232659 18.126310 2.218869 84.011967 0.629897 -13.822728 5.193038 0.000000 0.000000 0.000000 33.517234 -7.700325 28.993050 8.697438 17.284833 -7.869570 -31.202245 14.183525 -1.096660 3.289160 17.487314 51.282489 0.218619 -5.586100 4.478848 0.000000 0.000000 0.000000 -3.523591 5.727640 -0.239168 -0.048947 -2.783989 0.074837 0.000000 0.000000 0.000000 -0.202593 -6.667148 -0.200057 -5.246078 8.658560 -0.485903 -15.152965 -1.765688 -0.732610 0.000000 0.000000 0.000000 13.460875 -16.030524 64.031017 -64.262322 -13.498627 21.342398 -31.935524 21.212034 -66.403109 0.000000 0.000000 0.000000 20.039367 6.858617 37.470397 -6.826904 -0.120092 2.013193 0.000000 0.000000 0.000000 -9.585834 1.363248 73.848455 0.000000 0.000000 0.000000 -39.593401 10.641926 85.765875 65.869836 22.693158 34.422530 -14.960825 -10.465352 69.789869 0.000000 0.000000 0.000000 -24.900850 0.491512 -2.225915 7.104189 -0.017572 -0.283077 0.000000 0.000000 0.000000 1.873525 1.012657 -33.219797 0.000000 0.000000 0.000000
1.328990 0.962919 -0.046523 0.000000 0.000000 0.000000 -32.686099 38.772683 41.692649 10.136417 -48.714765 -13.767934 -40.928522 2.891168 2.466315 17.531540 2.628738 83.423403 0.682425 -14.486636 5.365443 0.000000 0.000000 0.000000 32.871235 -7.813575 28.526932 9.204626 16.623178 -7.653933 -32.223188 14.676272 -1.003013 3.294353 17.480625 51.338071 0.248887 -6.101389 4.667417 0.000000 0.000000 0.000000 -3.824133 5.759765 -0.252124 0.013143 -2.740152 0.076423 0.000000 0.000000 0.000000 -0.021398 -6.634511 -0.206351 -4.425930 8.557960 -0.488390 -14.877382 -1.736441 -0.715303 0.000000 0.000000 0.000000 14.267011 -15.565083 64.500552 -64.065360 -13.299599 21.110668 -28.813576 19.140098 -66.556151 0.000000 0.000000 0.000000 18.833550 6.438004 37.464664 -6.846876 -0.112091 1.873598 0.000000 0.000000 0.000000 -10.859757 1.612766 73.154448 0.000000 0.000000 0.000000 -39.703030 10.569623 85.855880 64.871839 23.146080 35.721541 -15.303699 -10.047178 66.392589 0.000000 0.000000 0.000000 -24.547613 0.200889 -0.923369 7.131659 -0.020828 -0.334227 0.000000 0.000000 0.000000 2.325366 1.283788 -32.200201 0.000000 0.000000 0.000000
1.346061 0.963413 -0.053400 0.000000 0.000000 0.000000 -32.434809 38.751896 41.584619 9.244825 -48.680255 -14.183513 -39.453137 3.239427 2.692184 17.294383 2.653269 82.764891 0.709901 -14.983069 5.394480 0.000000 0.000000 0.000000 32.423455 -7.760776 28.070469 9.517092 15.868331 -7.355287 -33.472753 15.211295 -0.872507 3.285418 17.493284 51.253190 0.262527 -6.355855 4.725651 0.000000 0.000000 0.000000 -4.052531 5.839775 -0.260667 0.079103 -2.721463 0.078847 0.000000 0.000000 0.000000 0.160136 -6.688672 -0.215372 -3.656971 8.482284 -0.489916 -14.618562 -1.692646 -0.697442 0.000000 0.000000 0.000000 15.284706 -14.995295 65.183098 -64.344912 -13.137356 20.746323 -26.342269 17.387928 -66.323725 0.000000 0.000000 0.000000 18.119181 6.102678 36.970810 -6.835832 -0.107588 1.801246 0.000000 0.000000 0.000000 -11.604277 1.803681 72.388211 0.000000 0.000000 0.000000 -39.961286 10.391381 85.992109 63.660326 23.565381 37.148316 -16.265671 -9.925739 62.569315 0.000000 0.000000 0.000000 -24.383625 -0.144218 0.667491 7.176069 -0.022442 -0.357890 0.000000 0.000000 0.000000 2.586325 1.469047 -30.812040 0.000000 0.000000 0.000000
1.364409 0.959806 -0.065687 0.000000 0.000000 0.000000 -32.338421 38.745311 41.546125 8.155262 -48.638665 -14.692616 -38.010548 3.469183 2.810112 17.201140 2.543899 82.149089 0.718611 -15.180717 5.388756 0.000000 0.000000 0.000000 32.265409 -7.622028 27.785530 9.597765 15.216585 -7.063343 -34.735309 15.780015 -0.730109 3.233565 17.582711 50.901860 0.267230 -6.472824 4.723207 0.000000 0.000000 0.000000 -4.173875 5.960780 -0.263310 0.097898 -2.703919 0.079185 0.000000 0.000000 0.000000 0.322395 -6.829625 -0.225942 -2.928592 8.406220 -0.490266 -14.375054 -1.657771 -0.681488 0.000000 0.000000 0.000000 16.494537 -14.338962 66.124410 -65.209421 -13.063222 20.296674 -24.459011 15.957401 -65.778382 0.000000 0.000000 0.000000 17.717561 5.826672 36.165885 -6.802743 -0.105774 1.779525 0.000000 0.000000 0.000000 -12.017387 1.949293 71.637757 0.000000 0.000000 0.000000 -40.437297 10.050341 86.125153 62.148508 23.972747 38.815214 -17.736321 -10.011323 58.616878 0.000000 0.000000 0.000000 -24.270749 -0.546535 2.541305 7.234503 -0.022050 -0.348795 0.000000 0.000000 0.000000 2.763592 1.627455 -29.019437 0.000000 0.000000 0.000000
1.375898 0.954100 -0.079060 0.000000 0.000000 0.000000 -32.433042 38.748365 41.577222 7.027706 -48.528541 -15.197311 -36.666654 3.565815 2.819820 17.212446 2.343992 81.594207 0.735410 -15.610805 5.361019 0.000000 0.000000 0.000000 32.399164 -7.408737 27.682259 9.463247 14.766917 -6.831693 -35.942247 16.239874 -0.579186 3.101488 17.861675 50.447841 0.253981 -6.310924 4.604555 0.000000 0.000000 0.000000 -4.166843 6.065093 -0.260666 0.056930 -2.689281 0.076951 0.000000 0.000000 0.000000 0.451395 -6.995180 -0.235533 -2.272821 8.348308 -0.490168 -14.162861 -1.639424 -0.668949 0.000000 0.000000 0.000000 17.944241 -13.546069 67.343742 -66.637731 -13.234250 20.016660 -23.043401 14.810875 -65.043625 0.000000 0.000000 0.000000 17.674833 5.611818 34.993194 -6.751276 -0.107263 1.818345 0.000000 0.000000 0.000000 -12.056059 2.039665 70.862667 0.000000 0.000000 0.000000 -41.148500 9.533743 86.275008 60.353896 24.302489 40.638620 -19.339694 -10.154504 55.077874 0.000000 0.000000 0.000000 -23.988929 -0.895290 4.212199 7.317524 -0.017151 -0.268224 0.000000 0.000000 0.000000 3.021703 1.846016 -27.164293 0.000000 0.000000 0.000000
1.379750 0.948895 -0.090037 0.000000 0.000000 0.000000 -32.669811 38.726463 41.597190 5.911128 -48.286294 -15.648759 -35.386850 3.565070 2.755103 17.332916 2.052710 81.120269 0.751417 -16.096930 5.310261 0.000000 0.000000 0.000000 32.748371 -7.174242 27.747442 9.152812 14.612096 -6.711430 -36.949622 16.433454 -0.440582 2.852211 18.443880 50.049323 0.211263 -5.678253 4.258014 0.000000 0.000000 0.000000 -4.089630 6.111808 -0.256388 -0.021725 -2.679630 0.073198 0.000000 0.000000 0.000000 0.603713 -7.176993 -0.246018 -1.691222 8.383679 -0.493427 -13.984898 -1.600699 -0.656128 0.000000 0.000000 0.000000 19.619292 -12.579044 68.753054 -68.361965 -13.695776 20.056355 -22.024891 13.909943 -64.162358 0.000000 0.000000 0.000000 17.792253 5.395525 33.507058 -6.681519 -0.111903 1.916846 0.000000 0.000000 0.000000 -11.954465 2.106470 70.082147 0.000000 0.000000 0.000000 -42.020729 8.888776 86.347546 58.372713 24.547043 42.559816 -20.647147 -10.217600 52.283782 0.000000 0.000000 0.000000 -23.682735 -1.165674 5.555544 7.426089 -0.011203 -0.172633 0.000000 0.000000 0.000000 3.343820 2.106809 -25.582036 0.000000 0.000000 0.000000
1.372212 0.944025 -0.094725 0.000000 0.000000 0.000000 -33.003222 38.670908 41.576372 4.747165 -47.878925 -16.058190 -34.135677 3.509090 2.651164 17.507666 1.702496 80.656856 0.772262 -16.725977 5.249634 0.000000 0.000000 0.000000 33.265860 -6.931482 27.953944 8.600329 14.785918 -6.705778 -37.445276 16.159876 -0.362742 2.459941 19.408006 49.893479 0.161382 -4.814542 3.837384 0.000000 0.000000 0.000000 -3.949645 6.064287 -0.251509 -0.151155 -2.649751 0.066684 0.000000 0.000000 0.000000 0.776605 -7.328383 -0.255974 -1.146451 8.441709 -0.498053 -13.831496 -1.552827 -0.643730 0.000000 0.000000 0.000000 21.502050 -11.390947 70.208192 -69.986903 -14.544768 20.662547 -21.613028 13.327716 -62.940337 0.000000 0.000000 0.000000 18.223787 5.199775 31.615100 -6.576401 -0.121838 2.120414 0.000000 0.000000 0.000000 -11.580080 2.109470 69.418539 0.000000 0.000000 0.000000 -42.927713 8.209181 86.295274 56.368962 24.740879 44.518834 -21.429977 -10.159394 50.325067 0.000000 0.000000 0.000000 -23.254721 -1.322850 6.422390 7.561362 -0.006529 -0.098802 0.000000 0.000000 0.000000 3.870353 2.486790 -24.568310 0.000000 0.000000 0.000000
1.356679 0.919726 -0.093242 0.000000 0.000000 0.000000 -33.316066 38.332097 40.985762 4.098239 -46.334801 -15.785943 -32.892952 2.949045 2.178136 17.672954 1.637331 80.977804 0.828069 -17.358260 5.420718 0.000000 0.000000 0.000000 33.827646 -7.072467 28.610757 8.290557 15.973935 -7.197900 -37.200707 14.594781 -0.358542 1.738007 21.194389 50.336973 0.148666 -4.508308 3.775446 0.000000 0.000000 0.000000 -3.622793 5.629644 -0.245380 -0.363061 -2.399766 0.051238 0.000000 0.000000 0.000000 0.837134 -7.287397 -0.257078 -0.589896 8.382714 -0.496876 -13.653765 -1.645857 -0.644117 0.000000 0.000000 0.000000 24.108739 -9.617055 72.154786 -70.794961 -16.205658 22.658951 -22.505531 13.321479 -60.820454 0.000000 0.000000 0.000000 18.805528 4.894554 28.943145 -6.369145 -0.136437 2.451827 0.000000 0.000000 0.000000 -10.931973 2.060646 68.711405 0.000000 0.000000 0.000000 -44.393584 7.121104 86.489937 53.879346 25.144261 47.387079 -21.845104 -10.016325 48.846071 0.000000 0.000000 0.000000 -22.450120 -1.231172 6.197820 7.702539 -0.001163 -0.017282 0.000000 0.000000 0.000000 4.657084 2.984824 -24.703548 0.000000 0.000000 0.000000
1.327203 0.967399 -0.018438 0.000000 0.000000 0.000000 -32.925456 38.599166 41.413701 0.394154 -47.328538 -17.934231 -31.884880 4.515315 3.274446 18.076344 0.020563 77.812934 0.726403 -18.058653 4.568821 0.000000 0.000000 0.000000 34.367096 -6.090316 28.044170 6.146221 14.772984 -6.321689 -35.079764 15.323857 -0.662317 1.894003 20.802345 49.681081 0.166670 -4.629608 4.121385 0.000000 0.000000 0.000000 -3.641999 5.905084 -0.241354 -0.745050 -2.580455 0.039097 0.000000 0.000000 0.000000 1.364461 -7.409429 -0.277903 -0.147507 8.517029 -0.506167 -13.610504 -1.154761 -0.593894 0.000000 0.000000 0.000000 25.166093 -8.532728 71.401646 -72.172114 -17.448622 23.779695 -23.378319 13.519555 -59.617622 0.000000 0.000000 0.000000 19.575995 4.359396 24.883339 -6.250150 -0.162291 2.971858 0.000000 0.000000 0.000000 -10.688324 2.157234 67.240340 0.000000 0.000000 0.000000 -42.990344 8.088205 84.815232 54.119946 25.199620 47.264116 -20.211138 -9.318107 49.145049 0.000000 0.000000 0.000000 -21.786293 -1.195816 6.207934 7.984866 -0.005983 -0.085729 0.000000 0.000000 0.000000 6.089633 3.890240 -24.885670 0.000000 0.000000 0.000000
1.294942 0.974720 -0.071066 0.000000 0.000000 0.000000 -34.957567 39.152725 43.104930 -1.001383 -48.529913 -19.134151 -31.759964 4.399379 3.183022 19.178242 -1.074478 78.237734 0.622319 -18.272183 3.868225 0.000000 0.000000 0.000000 36.164872 -5.076188 28.569929 3.903529 15.120854 -6.124196 -34.581949 14.745132 -0.701562 1.791181 21.075352 51.095544 0.165348 -4.511460 4.195802 0.000000 0.000000 0.000000 -3.738891 5.821556 -0.247142 -1.050687 -2.740506 0.028804 0.000000 0.000000 0.000000 1.846707 -7.199496 -0.291033 0.215366 8.470803 -0.504887 -13.806320 -1.236367 -0.610977 0.000000 0.000000 0.000000 27.462480 -6.847237 73.060488 -72.038444 -19.372129 26.422938 -25.475178 14.354376 -58.241607 0.000000 0.000000 0.000000 20.865584 3.955571 21.244694 -6.096871 -0.190974 3.584826 0.000000 0.000000 0.000000 -10.179695 2.125597 66.469077 0.000000 0.000000 0.000000 -43.737715 7.559752 85.178756 52.190293 25.301075 49.240505 -19.984175 -9.252628 49.337973 0.000000 0.000000 0.000000 -21.498299 -1.059748 5.578056 8.256743 -0.000359 -0.004972 0.000000 0.000000 0.000000 7.018518 4.455272 -25.224959 0.000000 0.000000 0.000000
